<svg xmlns="http://www.w3.org/2000/svg" viewBox="0 0 1400 900">
  <defs>
    <linearGradient id="archBg" x1="0%" y1="0%" x2="100%" y2="100%">
      <stop offset="0%" style="stop-color:#0f172a"/>
      <stop offset="100%" style="stop-color:#1e293b"/>
    </linearGradient>
    <linearGradient id="sourceGrad" x1="0%" y1="0%" x2="0%" y2="100%">
      <stop offset="0%" style="stop-color:#f59e0b"/>
      <stop offset="100%" style="stop-color:#d97706"/>
    </linearGradient>
    <linearGradient id="snowflakeLayerGrad" x1="0%" y1="0%" x2="0%" y2="100%">
      <stop offset="0%" style="stop-color:#29B5E8"/>
      <stop offset="100%" style="stop-color:#0891b2"/>
    </linearGradient>
    <linearGradient id="atomicGrad" x1="0%" y1="0%" x2="0%" y2="100%">
      <stop offset="0%" style="stop-color:#22c55e"/>
      <stop offset="100%" style="stop-color:#16a34a"/>
    </linearGradient>
    <linearGradient id="aiGrad" x1="0%" y1="0%" x2="0%" y2="100%">
      <stop offset="0%" style="stop-color:#8b5cf6"/>
      <stop offset="100%" style="stop-color:#7c3aed"/>
    </linearGradient>
    <linearGradient id="appGrad" x1="0%" y1="0%" x2="0%" y2="100%">
      <stop offset="0%" style="stop-color:#3b82f6"/>
      <stop offset="100%" style="stop-color:#2563eb"/>
    </linearGradient>
    <linearGradient id="personaGrad" x1="0%" y1="0%" x2="0%" y2="100%">
      <stop offset="0%" style="stop-color:#ec4899"/>
      <stop offset="100%" style="stop-color:#db2777"/>
    </linearGradient>
    <filter id="archShadow" x="-20%" y="-20%" width="140%" height="140%">
      <feDropShadow dx="0" dy="4" stdDeviation="8" flood-color="#000" flood-opacity="0.35"/>
    </filter>
    <marker id="arrowHead" markerWidth="10" markerHeight="7" refX="9" refY="3.5" orient="auto">
      <polygon points="0 0, 10 3.5, 0 7" fill="#29B5E8"/>
    </marker>
  </defs>
  
  <!-- Background -->
  <rect width="1400" height="900" fill="url(#archBg)"/>
  
  <!-- Grid pattern -->
  <pattern id="archGrid" width="50" height="50" patternUnits="userSpaceOnUse">
    <path d="M 50 0 L 0 0 0 50" fill="none" stroke="#334155" stroke-width="0.3" opacity="0.4"/>
  </pattern>
  <rect width="1400" height="900" fill="url(#archGrid)"/>
  
  <!-- Header -->
  <text x="700" y="40" text-anchor="middle" font-family="Inter, Arial, sans-serif" font-size="14" font-weight="500" fill="#94a3b8" letter-spacing="3">SOLUTION ARCHITECTURE</text>
  <text x="700" y="75" text-anchor="middle" font-family="Inter, Arial, sans-serif" font-size="28" font-weight="700" fill="#e2e8f0">Causal Chain Strategy Simulator</text>
  
  <!-- Column headers -->
  <text x="120" y="120" text-anchor="middle" font-family="Inter, Arial, sans-serif" font-size="12" font-weight="600" fill="#f59e0b" letter-spacing="1">DATA SOURCES</text>
  <text x="470" y="120" text-anchor="middle" font-family="Inter, Arial, sans-serif" font-size="12" font-weight="600" fill="#29B5E8" letter-spacing="1">SNOWFLAKE PLATFORM</text>
  <text x="1070" y="120" text-anchor="middle" font-family="Inter, Arial, sans-serif" font-size="12" font-weight="600" fill="#8b5cf6" letter-spacing="1">CORTEX AI</text>
  <text x="1300" y="120" text-anchor="middle" font-family="Inter, Arial, sans-serif" font-size="12" font-weight="600" fill="#ec4899" letter-spacing="1">CONSUMERS</text>
  
  <!-- DATA SOURCES Column -->
  <g transform="translate(40, 150)">
    <!-- ERP -->
    <g transform="translate(0, 0)">
      <rect x="0" y="0" width="160" height="70" rx="8" fill="#1e293b" stroke="#f59e0b" stroke-width="2" filter="url(#archShadow)"/>
      <rect x="0" y="0" width="160" height="5" rx="2" fill="url(#sourceGrad)"/>
      <text x="80" y="32" text-anchor="middle" font-family="Inter, Arial, sans-serif" font-size="14" font-weight="600" fill="#f59e0b">ERP System</text>
      <text x="80" y="50" text-anchor="middle" font-family="Inter, Arial, sans-serif" font-size="10" fill="#94a3b8">SAP / Oracle</text>
      <text x="80" y="62" text-anchor="middle" font-family="Inter, Arial, sans-serif" font-size="9" fill="#64748b">Orders, Inventory</text>
    </g>
    
    <!-- TMS -->
    <g transform="translate(0, 90)">
      <rect x="0" y="0" width="160" height="70" rx="8" fill="#1e293b" stroke="#f59e0b" stroke-width="2" filter="url(#archShadow)"/>
      <rect x="0" y="0" width="160" height="5" rx="2" fill="url(#sourceGrad)"/>
      <text x="80" y="32" text-anchor="middle" font-family="Inter, Arial, sans-serif" font-size="14" font-weight="600" fill="#f59e0b">TMS</text>
      <text x="80" y="50" text-anchor="middle" font-family="Inter, Arial, sans-serif" font-size="10" fill="#94a3b8">Transport Mgmt</text>
      <text x="80" y="62" text-anchor="middle" font-family="Inter, Arial, sans-serif" font-size="9" fill="#64748b">Freight, Lead Times</text>
    </g>
    
    <!-- Demand Planning -->
    <g transform="translate(0, 180)">
      <rect x="0" y="0" width="160" height="70" rx="8" fill="#1e293b" stroke="#f59e0b" stroke-width="2" filter="url(#archShadow)"/>
      <rect x="0" y="0" width="160" height="5" rx="2" fill="url(#sourceGrad)"/>
      <text x="80" y="32" text-anchor="middle" font-family="Inter, Arial, sans-serif" font-size="14" font-weight="600" fill="#f59e0b">S&amp;OP</text>
      <text x="80" y="50" text-anchor="middle" font-family="Inter, Arial, sans-serif" font-size="10" fill="#94a3b8">Demand Planning</text>
      <text x="80" y="62" text-anchor="middle" font-family="Inter, Arial, sans-serif" font-size="9" fill="#64748b">Forecasts, Plans</text>
    </g>
    
    <!-- QBR Documents -->
    <g transform="translate(0, 270)">
      <rect x="0" y="0" width="160" height="70" rx="8" fill="#1e293b" stroke="#f59e0b" stroke-width="2" filter="url(#archShadow)"/>
      <rect x="0" y="0" width="160" height="5" rx="2" fill="url(#sourceGrad)"/>
      <text x="80" y="32" text-anchor="middle" font-family="Inter, Arial, sans-serif" font-size="14" font-weight="600" fill="#f59e0b">Documents</text>
      <text x="80" y="50" text-anchor="middle" font-family="Inter, Arial, sans-serif" font-size="10" fill="#94a3b8">QBRs, Risk Reports</text>
      <text x="80" y="62" text-anchor="middle" font-family="Inter, Arial, sans-serif" font-size="9" fill="#64748b">PDFs, Unstructured</text>
    </g>
    
    <!-- Data flow frequencies -->
    <text x="180" y="40" font-family="Inter, Arial, sans-serif" font-size="9" fill="#64748b">Daily</text>
    <text x="180" y="130" font-family="Inter, Arial, sans-serif" font-size="9" fill="#64748b">Hourly</text>
    <text x="180" y="220" font-family="Inter, Arial, sans-serif" font-size="9" fill="#64748b">Daily</text>
    <text x="180" y="310" font-family="Inter, Arial, sans-serif" font-size="9" fill="#64748b">Ad-hoc</text>
  </g>
  
  <!-- Flow arrows from sources -->
  <g stroke="#29B5E8" stroke-width="2" fill="none" marker-end="url(#arrowHead)">
    <path d="M220,195 Q260,195 280,230" opacity="0.7"/>
    <path d="M220,285 L280,285" opacity="0.7"/>
    <path d="M220,375 Q260,375 280,340" opacity="0.7"/>
    <path d="M220,465 Q260,465 280,400" opacity="0.7"/>
  </g>
  
  <!-- SNOWFLAKE PLATFORM Column -->
  <g transform="translate(300, 150)">
    <!-- RAW Layer -->
    <rect x="0" y="0" width="340" height="90" rx="10" fill="#1e293b" stroke="#29B5E8" stroke-width="2" filter="url(#archShadow)"/>
    <rect x="0" y="0" width="340" height="6" rx="3" fill="url(#snowflakeLayerGrad)"/>
    <text x="170" y="28" text-anchor="middle" font-family="Inter, Arial, sans-serif" font-size="13" font-weight="600" fill="#29B5E8">RAW LAYER</text>
    <text x="170" y="45" text-anchor="middle" font-family="Inter, Arial, sans-serif" font-size="9" fill="#64748b">Landing zone with metadata columns</text>
    
    <g transform="translate(15, 55)">
      <rect x="0" y="0" width="95" height="25" rx="5" fill="#0f172a" stroke="#334155"/>
      <text x="47" y="17" text-anchor="middle" font-family="Inter, Arial, sans-serif" font-size="8" fill="#94a3b8">*_STAGE tables</text>
    </g>
    <g transform="translate(120, 55)">
      <rect x="0" y="0" width="95" height="25" rx="5" fill="#0f172a" stroke="#334155"/>
      <text x="47" y="17" text-anchor="middle" font-family="Inter, Arial, sans-serif" font-size="8" fill="#94a3b8">QBR_DOCUMENTS</text>
    </g>
    <g transform="translate(225, 55)">
      <rect x="0" y="0" width="95" height="25" rx="5" fill="#0f172a" stroke="#334155"/>
      <text x="47" y="17" text-anchor="middle" font-family="Inter, Arial, sans-serif" font-size="8" fill="#64748b">_LOADED_TIMESTAMP</text>
    </g>
    
    <!-- Arrow down -->
    <path d="M170,100 L170,120" stroke="#29B5E8" stroke-width="2" marker-end="url(#arrowHead)" fill="none"/>
    <text x="195" y="115" font-family="Inter, Arial, sans-serif" font-size="8" fill="#64748b">Type Cast</text>
    
    <!-- ATOMIC Layer -->
    <rect x="0" y="135" width="340" height="120" rx="10" fill="#1e293b" stroke="#22c55e" stroke-width="2" filter="url(#archShadow)"/>
    <rect x="0" y="135" width="340" height="6" rx="3" fill="url(#atomicGrad)"/>
    <text x="170" y="163" text-anchor="middle" font-family="Inter, Arial, sans-serif" font-size="13" font-weight="600" fill="#22c55e">ATOMIC LAYER</text>
    <text x="170" y="180" text-anchor="middle" font-family="Inter, Arial, sans-serif" font-size="9" fill="#64748b">Normalized reference data + audit columns</text>
    
    <g transform="translate(15, 195)">
      <rect x="0" y="0" width="75" height="45" rx="5" fill="#0f172a" stroke="#334155"/>
      <text x="37" y="18" text-anchor="middle" font-family="Inter, Arial, sans-serif" font-size="8" font-weight="500" fill="#22c55e">DIM_INV</text>
      <text x="37" y="32" text-anchor="middle" font-family="Inter, Arial, sans-serif" font-size="7" fill="#64748b">STRUCTURE</text>
    </g>
    <g transform="translate(100, 195)">
      <rect x="0" y="0" width="75" height="45" rx="5" fill="#0f172a" stroke="#334155"/>
      <text x="37" y="18" text-anchor="middle" font-family="Inter, Arial, sans-serif" font-size="8" font-weight="500" fill="#22c55e">SCENARIO</text>
      <text x="37" y="32" text-anchor="middle" font-family="Inter, Arial, sans-serif" font-size="7" fill="#64748b">CONTROL</text>
    </g>
    <g transform="translate(185, 195)">
      <rect x="0" y="0" width="75" height="45" rx="5" fill="#0f172a" stroke="#334155"/>
      <text x="37" y="18" text-anchor="middle" font-family="Inter, Arial, sans-serif" font-size="8" font-weight="500" fill="#22c55e">CAUSAL</text>
      <text x="37" y="32" text-anchor="middle" font-family="Inter, Arial, sans-serif" font-size="7" fill="#64748b">TRACE_DEF</text>
    </g>
    <g transform="translate(270, 195)">
      <rect x="0" y="0" width="55" height="45" rx="5" fill="#0f172a" stroke="#334155"/>
      <text x="27" y="18" text-anchor="middle" font-family="Inter, Arial, sans-serif" font-size="8" font-weight="500" fill="#22c55e">ML_</text>
      <text x="27" y="32" text-anchor="middle" font-family="Inter, Arial, sans-serif" font-size="7" fill="#64748b">MODEL</text>
    </g>
    
    <!-- Arrow down -->
    <path d="M170,265 L170,285" stroke="#29B5E8" stroke-width="2" marker-end="url(#arrowHead)" fill="none"/>
    <text x="195" y="280" font-family="Inter, Arial, sans-serif" font-size="8" fill="#64748b">Denormalize</text>
    
    <!-- STRATEGY_SIMULATOR Layer (Data Mart) -->
    <rect x="0" y="300" width="340" height="160" rx="10" fill="#1e293b" stroke="#29B5E8" stroke-width="2" filter="url(#archShadow)"/>
    <rect x="0" y="300" width="340" height="6" rx="3" fill="url(#snowflakeLayerGrad)"/>
    <text x="170" y="328" text-anchor="middle" font-family="Inter, Arial, sans-serif" font-size="13" font-weight="600" fill="#29B5E8">STRATEGY_SIMULATOR</text>
    <text x="170" y="345" text-anchor="middle" font-family="Inter, Arial, sans-serif" font-size="9" fill="#64748b">Data Mart - Denormalized aggregates</text>
    
    <g transform="translate(15, 360)">
      <rect x="0" y="0" width="150" height="40" rx="5" fill="#0f172a" stroke="#334155"/>
      <text x="75" y="16" text-anchor="middle" font-family="Inter, Arial, sans-serif" font-size="9" font-weight="500" fill="#e2e8f0">FACT_PERFORMANCE</text>
      <text x="75" y="32" text-anchor="middle" font-family="Inter, Arial, sans-serif" font-size="8" fill="#22c55e">432 rows | OTIF, ROCE, FCF</text>
    </g>
    <g transform="translate(175, 360)">
      <rect x="0" y="0" width="150" height="40" rx="5" fill="#0f172a" stroke="#334155"/>
      <text x="75" y="16" text-anchor="middle" font-family="Inter, Arial, sans-serif" font-size="9" font-weight="500" fill="#e2e8f0">PREDICTIVE_BRIDGE</text>
      <text x="75" y="32" text-anchor="middle" font-family="Inter, Arial, sans-serif" font-size="8" fill="#8b5cf6">1,728 ML predictions</text>
    </g>
    <g transform="translate(15, 410)">
      <rect x="0" y="0" width="150" height="35" rx="5" fill="#0f172a" stroke="#334155"/>
      <text x="75" y="22" text-anchor="middle" font-family="Inter, Arial, sans-serif" font-size="8" fill="#94a3b8">V_PERFORMANCE_SUMMARY</text>
    </g>
    <g transform="translate(175, 410)">
      <rect x="0" y="0" width="150" height="35" rx="5" fill="#0f172a" stroke="#334155"/>
      <text x="75" y="22" text-anchor="middle" font-family="Inter, Arial, sans-serif" font-size="8" fill="#94a3b8">V_CAUSAL_TRACES</text>
    </g>
  </g>
  
  <!-- Arrows to AI -->
  <path d="M660,350 Q700,350 730,280" stroke="#29B5E8" stroke-width="2" marker-end="url(#arrowHead)" fill="none" opacity="0.7"/>
  <path d="M660,400 L730,400" stroke="#29B5E8" stroke-width="2" marker-end="url(#arrowHead)" fill="none" opacity="0.7"/>
  <path d="M660,450 Q700,450 730,480" stroke="#29B5E8" stroke-width="2" marker-end="url(#arrowHead)" fill="none" opacity="0.7"/>
  
  <!-- CORTEX AI Column -->
  <g transform="translate(750, 150)">
    <!-- Semantic Model -->
    <rect x="0" y="0" width="260" height="100" rx="10" fill="#1e293b" stroke="#8b5cf6" stroke-width="2" filter="url(#archShadow)"/>
    <rect x="0" y="0" width="260" height="6" rx="3" fill="url(#aiGrad)"/>
    <text x="130" y="28" text-anchor="middle" font-family="Inter, Arial, sans-serif" font-size="13" font-weight="600" fill="#8b5cf6">SEMANTIC MODEL</text>
    <text x="130" y="50" text-anchor="middle" font-family="Inter, Arial, sans-serif" font-size="10" fill="#94a3b8">causal_chain_model.yaml</text>
    <text x="130" y="68" text-anchor="middle" font-family="Inter, Arial, sans-serif" font-size="9" fill="#64748b">4 tables | 25+ metrics | 6 VQRs</text>
    <text x="130" y="85" text-anchor="middle" font-family="Inter, Arial, sans-serif" font-size="9" fill="#c4b5fd">Text-to-SQL ready</text>
    
    <!-- Cortex Analyst -->
    <rect x="0" y="120" width="260" height="80" rx="10" fill="#1e293b" stroke="#8b5cf6" stroke-width="2" filter="url(#archShadow)"/>
    <rect x="0" y="120" width="260" height="6" rx="3" fill="url(#aiGrad)"/>
    <text x="130" y="150" text-anchor="middle" font-family="Inter, Arial, sans-serif" font-size="13" font-weight="600" fill="#8b5cf6">CORTEX ANALYST</text>
    <text x="130" y="172" text-anchor="middle" font-family="Inter, Arial, sans-serif" font-size="10" fill="#94a3b8">Natural Language to SQL</text>
    <text x="130" y="190" text-anchor="middle" font-family="Inter, Arial, sans-serif" font-size="9" fill="#64748b">"Why did ROCE drop?" → SQL</text>
    
    <!-- Cortex Search -->
    <rect x="0" y="220" width="260" height="80" rx="10" fill="#1e293b" stroke="#8b5cf6" stroke-width="2" filter="url(#archShadow)"/>
    <rect x="0" y="220" width="260" height="6" rx="3" fill="url(#aiGrad)"/>
    <text x="130" y="250" text-anchor="middle" font-family="Inter, Arial, sans-serif" font-size="13" font-weight="600" fill="#8b5cf6">CORTEX SEARCH</text>
    <text x="130" y="272" text-anchor="middle" font-family="Inter, Arial, sans-serif" font-size="10" fill="#94a3b8">RAG over QBR Documents</text>
    <text x="130" y="290" text-anchor="middle" font-family="Inter, Arial, sans-serif" font-size="9" fill="#64748b">Vector embeddings + retrieval</text>
    
    <!-- Cortex Complete -->
    <rect x="0" y="320" width="260" height="80" rx="10" fill="#1e293b" stroke="#8b5cf6" stroke-width="2" filter="url(#archShadow)"/>
    <rect x="0" y="320" width="260" height="6" rx="3" fill="url(#aiGrad)"/>
    <text x="130" y="350" text-anchor="middle" font-family="Inter, Arial, sans-serif" font-size="13" font-weight="600" fill="#8b5cf6">CORTEX COMPLETE</text>
    <text x="130" y="372" text-anchor="middle" font-family="Inter, Arial, sans-serif" font-size="10" fill="#94a3b8">AI Explanations</text>
    <text x="130" y="390" text-anchor="middle" font-family="Inter, Arial, sans-serif" font-size="9" fill="#64748b">mistral-large2 model</text>
  </g>
  
  <!-- Arrows to App -->
  <path d="M1030,280 L1070,280" stroke="#29B5E8" stroke-width="2" marker-end="url(#arrowHead)" fill="none" opacity="0.7"/>
  
  <!-- STREAMLIT APP -->
  <g transform="translate(1090, 150)">
    <rect x="0" y="0" width="260" height="260" rx="12" fill="#1e293b" stroke="#3b82f6" stroke-width="2" filter="url(#archShadow)"/>
    <rect x="0" y="0" width="260" height="8" rx="4" fill="url(#appGrad)"/>
    
    <text x="130" y="35" text-anchor="middle" font-family="Inter, Arial, sans-serif" font-size="14" font-weight="700" fill="#3b82f6">STRATEGY SIMULATOR</text>
    <text x="130" y="55" text-anchor="middle" font-family="Inter, Arial, sans-serif" font-size="10" fill="#94a3b8">Streamlit in Snowflake</text>
    
    <g transform="translate(15, 70)">
      <rect x="0" y="0" width="110" height="35" rx="5" fill="#0f172a" stroke="#334155"/>
      <text x="55" y="15" text-anchor="middle" font-family="Inter, Arial, sans-serif" font-size="8" font-weight="500" fill="#3b82f6">Strategy</text>
      <text x="55" y="28" text-anchor="middle" font-family="Inter, Arial, sans-serif" font-size="8" fill="#64748b">Selector</text>
    </g>
    <g transform="translate(135, 70)">
      <rect x="0" y="0" width="110" height="35" rx="5" fill="#0f172a" stroke="#334155"/>
      <text x="55" y="15" text-anchor="middle" font-family="Inter, Arial, sans-serif" font-size="8" font-weight="500" fill="#f59e0b">Trade-Off</text>
      <text x="55" y="28" text-anchor="middle" font-family="Inter, Arial, sans-serif" font-size="8" fill="#64748b">Triangle</text>
    </g>
    <g transform="translate(15, 115)">
      <rect x="0" y="0" width="110" height="35" rx="5" fill="#0f172a" stroke="#334155"/>
      <text x="55" y="15" text-anchor="middle" font-family="Inter, Arial, sans-serif" font-size="8" font-weight="500" fill="#22c55e">ROCE</text>
      <text x="55" y="28" text-anchor="middle" font-family="Inter, Arial, sans-serif" font-size="8" fill="#64748b">Sensitivity</text>
    </g>
    <g transform="translate(135, 115)">
      <rect x="0" y="0" width="110" height="35" rx="5" fill="#0f172a" stroke="#334155"/>
      <text x="55" y="15" text-anchor="middle" font-family="Inter, Arial, sans-serif" font-size="8" font-weight="500" fill="#ef4444">Causal</text>
      <text x="55" y="28" text-anchor="middle" font-family="Inter, Arial, sans-serif" font-size="8" fill="#64748b">Sankey</text>
    </g>
    <g transform="translate(15, 160)">
      <rect x="0" y="0" width="110" height="35" rx="5" fill="#0f172a" stroke="#334155"/>
      <text x="55" y="15" text-anchor="middle" font-family="Inter, Arial, sans-serif" font-size="8" font-weight="500" fill="#8b5cf6">Inventory</text>
      <text x="55" y="28" text-anchor="middle" font-family="Inter, Arial, sans-serif" font-size="8" fill="#64748b">Decomp</text>
    </g>
    <g transform="translate(135, 160)">
      <rect x="0" y="0" width="110" height="35" rx="5" fill="#0f172a" stroke="#334155"/>
      <text x="55" y="15" text-anchor="middle" font-family="Inter, Arial, sans-serif" font-size="8" font-weight="500" fill="#29B5E8">Financial</text>
      <text x="55" y="28" text-anchor="middle" font-family="Inter, Arial, sans-serif" font-size="8" fill="#64748b">Bridge</text>
    </g>
    
    <g transform="translate(15, 205)">
      <rect x="0" y="0" width="230" height="40" rx="5" fill="#8b5cf620" stroke="#8b5cf6"/>
      <text x="115" y="17" text-anchor="middle" font-family="Inter, Arial, sans-serif" font-size="9" font-weight="500" fill="#8b5cf6">AI Assistant</text>
      <text x="115" y="32" text-anchor="middle" font-family="Inter, Arial, sans-serif" font-size="8" fill="#c4b5fd">Cortex-powered Q&amp;A</text>
    </g>
  </g>
  
  <!-- Arrows to Personas -->
  <path d="M1220,420 L1220,510" stroke="#29B5E8" stroke-width="2" marker-end="url(#arrowHead)" fill="none" opacity="0.7"/>
  
  <!-- PERSONAS -->
  <g transform="translate(1090, 530)">
    <rect x="0" y="0" width="260" height="130" rx="10" fill="#1e293b" stroke="#ec4899" stroke-width="2" filter="url(#archShadow)"/>
    <rect x="0" y="0" width="260" height="6" rx="3" fill="url(#personaGrad)"/>
    <text x="130" y="30" text-anchor="middle" font-family="Inter, Arial, sans-serif" font-size="12" font-weight="600" fill="#ec4899">PERSONAS</text>
    
    <g transform="translate(20, 45)">
      <circle cx="15" cy="15" r="15" fill="#fbbf24" opacity="0.3"/>
      <text x="15" y="20" text-anchor="middle" font-family="Inter, Arial, sans-serif" font-size="12" fill="#fbbf24">$</text>
      <text x="45" y="15" font-family="Inter, Arial, sans-serif" font-size="11" font-weight="600" fill="#e2e8f0">CFO</text>
      <text x="45" y="28" font-family="Inter, Arial, sans-serif" font-size="8" fill="#64748b">ROCE Focus</text>
    </g>
    <g transform="translate(130, 45)">
      <circle cx="15" cy="15" r="15" fill="#22c55e" opacity="0.3"/>
      <text x="15" y="20" text-anchor="middle" font-family="Inter, Arial, sans-serif" font-size="14" fill="#22c55e">&#9881;</text>
      <text x="45" y="15" font-family="Inter, Arial, sans-serif" font-size="11" font-weight="600" fill="#e2e8f0">VP Supply Chain</text>
      <text x="45" y="28" font-family="Inter, Arial, sans-serif" font-size="8" fill="#64748b">Causal Trace</text>
    </g>
    <g transform="translate(75, 90)">
      <circle cx="15" cy="15" r="15" fill="#8b5cf6" opacity="0.3"/>
      <text x="15" y="20" text-anchor="middle" font-family="Inter, Arial, sans-serif" font-size="12" fill="#8b5cf6">&#128202;</text>
      <text x="45" y="15" font-family="Inter, Arial, sans-serif" font-size="11" font-weight="600" fill="#e2e8f0">Data Analyst</text>
      <text x="45" y="28" font-family="Inter, Arial, sans-serif" font-size="8" fill="#64748b">Ad-hoc Queries</text>
    </g>
  </g>
  
  <!-- Key / Legend -->
  <g transform="translate(40, 720)">
    <rect x="0" y="0" width="700" height="70" rx="8" fill="#1e293b" stroke="#334155"/>
    <text x="20" y="25" font-family="Inter, Arial, sans-serif" font-size="11" font-weight="600" fill="#94a3b8">ARCHITECTURE PATTERN:</text>
    
    <rect x="180" y="12" width="12" height="12" rx="2" fill="#29B5E8"/>
    <text x="200" y="22" font-family="Inter, Arial, sans-serif" font-size="10" fill="#64748b">RAW (Landing)</text>
    
    <rect x="290" y="12" width="12" height="12" rx="2" fill="#22c55e"/>
    <text x="310" y="22" font-family="Inter, Arial, sans-serif" font-size="10" fill="#64748b">ATOMIC (Reference)</text>
    
    <rect x="430" y="12" width="12" height="12" rx="2" fill="#29B5E8"/>
    <text x="450" y="22" font-family="Inter, Arial, sans-serif" font-size="10" fill="#64748b">STRATEGY_SIMULATOR (Mart)</text>
    
    <rect x="610" y="12" width="12" height="12" rx="2" fill="#8b5cf6"/>
    <text x="630" y="22" font-family="Inter, Arial, sans-serif" font-size="10" fill="#64748b">Cortex AI</text>
    
    <text x="20" y="55" font-family="Inter, Arial, sans-serif" font-size="10" fill="#64748b">RAW → ATOMIC → STRATEGY_SIMULATOR pattern. All data stays in Snowflake. Role-based access control.</text>
  </g>
  
  <!-- Footer -->
  <text x="700" y="820" text-anchor="middle" font-family="Inter, Arial, sans-serif" font-size="11" fill="#64748b">Project Causal Chain: Strategy Simulator Architecture v2.0</text>
  
  <!-- Snowflake logo -->
  <g transform="translate(1300, 830)">
    <circle cx="0" cy="0" r="22" fill="none" stroke="#29B5E8" stroke-width="2"/>
    <path d="M0,-12 L0,12 M-10.4,-6 L10.4,6 M-10.4,6 L10.4,-6" stroke="#29B5E8" stroke-width="2" stroke-linecap="round"/>
  </g>
</svg>
